<?xml version="1.0" encoding="UTF-8"?>
<!DOCTYPE svg PUBLIC "-//W3C//DTD SVG 1.0//EN" "http://www.w3.org/TR/2001/REC-SVG-20010904/DTD/svg10.dtd">
<!-- Creator: CorelDRAW X8 -->
<svg xmlns="http://www.w3.org/2000/svg" xml:space="preserve" width="219px" height="48px" version="1.0" style="shape-rendering:geometricPrecision; text-rendering:geometricPrecision; image-rendering:optimizeQuality; fill-rule:evenodd; clip-rule:evenodd"
viewBox="0 0 7531 1654"
 xmlns:xlink="http://www.w3.org/1999/xlink">
 <defs>
  <style type="text/css">
   <![CDATA[
    .fil0 {fill:#B5090E}
    .fil1 {fill:#B5090E;fill-rule:nonzero}
   ]]>
  </style>
 </defs>
 <g id="Layer_x0020_1">
  <metadata id="CorelCorpID_0Corel-Layer"/>
  <g id="_1445584824832">
   <path class="fil0" d="M727 1110c109,-140 124,-175 144,-209 61,-100 256,-452 272,-478 90,-10 83,-1 84,6l83 635c0,0 14,49 76,60 34,13 16,41 1,43 -13,3 -265,2 -265,2 0,0 -58,-7 -12,-43 37,-14 69,-16 59,-87 -11,-87 -16,-106 -16,-106l-217 -8c0,0 -133,211 -210,273 -66,57 -186,135 -353,143 -161,9 -276,-81 -324,-155 -49,-74 -99,-249 52,-355 158,-78 209,21 209,24 3,1 40,87 -51,103 -28,10 -96,-35 -126,-32 0,0 -85,3 -66,131 20,140 183,242 335,218 74,-4 226,-54 325,-165zm382 -475l35 237 -169 -5 134 -232z"/>
   <path class="fil0" d="M1726 742c45,12 47,37 30,59 -16,21 -107,123 -107,123 0,0 -8,9 -9,-7 0,-15 -3,-474 -3,-474 0,0 -4,-22 -23,-17 -19,2 -163,81 -163,81 0,0 -33,25 16,39 44,10 34,82 34,82l1 153 3 189 1 124 -3 9c0,2 -1,8 -6,11l-17 11 -11 7c0,0 -30,28 5,38 37,2 207,-1 207,-2 0,-1 28,-13 0,-33 -27,-19 -36,-14 -41,-48 -1,-34 0,-74 0,-74l36 -37c0,0 5,-3 9,2 3,5 88,111 88,111 0,0 11,20 2,31 -9,10 -28,24 -28,24 0,0 -16,21 13,27 33,4 256,-1 256,-1 0,0 34,-8 7,-35 -14,-16 -40,7 -98,-65 -57,-73 -153,-196 -153,-196l104 -111c0,0 22,-17 51,-17 30,-5 17,-39 -3,-41 -19,-2 -190,-3 -190,-3 0,0 -56,11 -8,40z"/>
   <path class="fil0" d="M2438 1107c-116,139 -279,29 -292,38 0,0 -24,0 -31,20 -6,20 -27,11 -32,2 -5,-9 -44,-122 -44,-122 0,0 8,-44 45,-12 37,43 175,128 255,65 73,-79 -86,-108 -86,-108 0,0 -187,-37 -206,-130 -19,-93 32,-129 32,-129 0,0 79,-90 231,-40 30,15 34,-16 34,-16 0,0 18,-28 33,1 10,28 40,114 40,114 0,0 -2,61 -46,17 -26,-51 -183,-115 -218,-34 -20,72 166,86 198,109 18,5 167,75 87,225z"/>
   <path class="fil0" d="M2688 1067c-2,-57 0,-239 0,-239 0,0 123,-127 169,34 3,167 2,231 2,231 0,0 -12,31 -37,43 -25,12 -18,34 3,37 22,2 207,-1 207,-1 0,0 33,-9 12,-32 -20,-23 -50,-15 -55,-84 0,-68 -2,-237 -2,-237 0,0 -10,-85 -110,-106 -100,-20 -159,24 -176,41 -15,11 -16,-9 -13,-12 -1,-28 -1,-280 -1,-280 0,0 -1,-36 -29,-26 -28,10 -161,87 -161,87 0,0 -28,27 14,35 32,2 40,14 44,49 -1,48 1,485 1,485 0,0 -11,27 -45,38 -31,14 -21,46 15,40 36,-1 218,3 218,3 0,0 35,-18 6,-34 -28,-16 -54,-14 -62,-72z"/>
   <path class="fil0" d="M3613 1171c21,9 213,0 237,-2 9,-1 19,-32 -3,-38 -55,-11 -58,-49 -60,-59 -2,-11 -2,-185 -1,-198 2,-13 5,-37 33,-57 29,-20 38,-11 52,-11 13,1 34,18 67,17 34,-1 42,-21 48,-31 2,-7 16,-40 -17,-65 -43,-25 -62,-14 -95,-5 -34,9 -60,37 -75,51 -14,14 -13,0 -13,0 0,0 -1,-54 -2,-58 -1,-4 2,-12 -12,-20 -14,-9 -28,4 -28,4l-122 75c-19,12 -20,20 -19,25 1,5 0,14 22,19 23,1 32,23 32,24 1,1 4,191 1,236 -2,46 -29,41 -47,62 -16,19 1,30 2,31 0,0 0,0 0,0z"/>
   <path class="fil0" d="M4317 717c-3,7 -4,2 -11,1 -7,0 0,-1 -49,-10 -49,-8 -88,5 -100,8 0,1 -53,8 -96,56 -53,51 -63,92 -72,118 -16,65 -15,125 14,179 27,54 59,79 92,98 36,24 82,28 119,26 37,-3 74,-21 87,-30 13,-9 13,-1 14,7 7,17 23,14 23,14 0,0 141,-28 150,-28 8,0 20,-4 24,-14 1,-5 5,-14 -27,-25 -35,-18 -34,-49 -34,-49l-1 -180c0,0 2,-397 4,-417 2,-20 -11,-24 -11,-24 0,0 -26,-1 -36,2 -10,3 -132,76 -143,83 -12,8 -10,17 -6,24 4,6 8,8 26,7 17,-1 30,21 30,21 0,0 3,121 3,133zm-188 323c-9,-25 -24,-80 -14,-127 9,-38 21,-78 36,-99 16,-21 38,-43 68,-51 30,-8 80,4 97,27l-2 307c0,0 -19,23 -44,29 -24,7 -58,5 -80,-9 -22,-13 -53,-47 -61,-77z"/>
   <path class="fil0" d="M5755 1060c-4,22 -11,36 -34,50 -92,27 -48,61 -48,61 0,0 291,4 306,2 11,-7 24,-42 -29,-58 -53,-16 -56,-64 -56,-64 0,0 5,-476 1,-519 -3,-42 11,-11 11,-11l360 652 69 0c0,0 71,-571 75,-611 4,-39 17,-7 17,-7 0,0 157,311 218,426 71,120 226,347 523,354 297,8 397,-242 353,-383 -55,-113 -96,-124 -156,-144 -59,-17 -114,18 -135,44 -21,25 -18,106 52,114 71,7 88,-42 139,-19 51,22 49,95 23,166 -25,72 -162,204 -381,142 -218,-62 -326,-264 -335,-274 -8,-11 -281,-546 -281,-546l-158 1c0,0 -63,447 -66,476 -3,30 -14,8 -14,8l-259 -484c0,0 -244,-1 -263,3 -19,5 -16,23 -13,34 3,11 18,6 52,25 34,19 35,47 35,47l-2 224c0,0 -2,260 -4,291z"/>
   <path class="fil0" d="M4579 1130c34,-11 45,-38 45,-38 0,0 -2,-437 -1,-485 -4,-35 -11,-47 -44,-49 -42,-8 -14,-35 -14,-35 0,0 133,-77 161,-87 28,-10 30,26 30,26 0,0 0,252 1,280 -4,3 -3,23 13,12 16,-17 75,-61 175,-41 100,21 110,106 110,106 0,0 2,169 2,237 5,69 35,61 56,84 20,23 -12,32 -12,32 0,0 -185,3 -207,1 -22,-3 -29,-25 -4,-37 26,-12 37,-43 37,-43 0,0 1,-64 -2,-231 -45,-161 -168,-34 -168,-34 0,0 -3,182 0,239 7,58 33,56 62,72 28,16 -7,34 -7,34 0,0 -182,-4 -218,-3 -35,6 -45,-26 -15,-40z"/>
   <path class="fil0" d="M3371 1129c6,-5 7,-8 15,4 34,38 64,37 66,37 51,4 85,-2 95,-4 11,-1 25,-25 -6,-38 -43,-15 -40,-55 -41,-56 -1,-1 -4,-220 -3,-257 -2,-16 -3,-21 -8,-36 -40,-87 -129,-95 -147,-97 -30,-1 -73,-5 -139,19 -65,24 -79,81 -79,87 -1,5 -1,37 31,45 31,7 64,-19 69,-27 5,-7 25,-37 46,-57 21,-21 59,-9 72,1 13,10 20,34 20,34 0,0 1,42 2,65 2,23 -4,23 -4,23 0,0 -1,0 -4,0 -472,16 -280,465 15,257zm-65 -26c-56,12 -92,-38 -97,-70 -5,-33 15,-100 118,-101 22,0 29,0 32,0 0,0 9,-2 9,20 0,22 2,100 2,103 0,3 -9,36 -64,48z"/>
   <path class="fil0" d="M5426 1129c6,-5 7,-8 15,4 34,38 64,37 66,37 52,4 85,-2 95,-4 11,-1 25,-25 -6,-38 -43,-15 -40,-55 -41,-56 -1,-1 -4,-220 -3,-257 -2,-16 -3,-21 -8,-36 -40,-87 -129,-95 -147,-97 -30,-1 -73,-5 -139,19 -65,24 -78,81 -79,87 -1,5 -1,37 31,45 31,7 64,-19 69,-27 5,-7 25,-37 46,-57 21,-21 59,-9 72,1 13,10 20,34 20,34 0,0 1,42 3,65 1,23 -5,23 -5,23 0,0 -1,0 -4,0 -472,16 -280,465 15,257zm-65 -26c-56,12 -92,-38 -97,-70 -5,-33 15,-100 118,-101 22,0 29,0 32,0 0,0 9,-2 9,20 0,22 2,100 2,103 0,3 -9,36 -64,48z"/>
  </g>
  <path class="fil1" d="M1179 304c20,15 47,21 82,21 71,0 115,-42 115,-103 0,-25 -8,-45 -24,-62 -13,-14 -38,-23 -67,-38 -33,-17 -50,-28 -50,-54 0,-24 18,-40 45,-40 28,0 52,16 61,44l5 0c4,-15 9,-32 16,-50 -22,-15 -46,-22 -74,-22 -67,0 -108,40 -108,94 0,50 31,71 86,100 33,18 52,29 52,56 0,27 -19,46 -51,46 -34,0 -59,-20 -67,-56l-6 0c-4,24 -9,45 -15,64zm470 15c8,-1 15,-2 23,-2 8,0 16,1 24,2 25,-79 51,-153 78,-222 27,74 52,148 74,222 8,-1 16,-2 24,-2 7,0 16,1 24,2 36,-115 70,-219 103,-313 -7,1 -14,2 -20,2 -8,0 -15,-1 -22,-2 -18,74 -40,149 -67,226 -26,-76 -51,-151 -73,-226 -8,1 -16,2 -24,2 -8,0 -15,-1 -23,-2 -26,81 -52,157 -78,229 -22,-75 -43,-152 -61,-229 -13,1 -26,2 -39,2 -13,0 -26,-1 -39,-2 37,105 69,210 96,313zm578 -122c12,-36 26,-71 42,-105 15,34 28,69 40,105 -14,0 -28,1 -41,1 -14,0 -27,-1 -41,-1zm-86 122c7,-1 14,-1 21,-1 7,0 14,0 20,1 10,-28 21,-59 32,-92 18,-1 36,-1 54,-1 18,0 36,0 54,1 9,29 19,59 30,92 13,-1 26,-2 39,-2 14,0 27,1 40,2 -47,-109 -90,-215 -128,-319 -5,1 -10,1 -16,1 -6,0 -12,0 -18,-1 -39,108 -81,215 -128,319zm461 0c6,-1 12,-2 18,-2 6,0 13,1 19,2 0,-31 4,-67 9,-108l11 -95c33,61 67,128 102,203 3,-1 6,-1 9,-1 4,0 7,0 10,1 33,-69 67,-139 104,-210l15 146c1,12 2,33 3,64 13,-1 26,-2 38,-2 13,0 26,1 39,2 -6,-28 -10,-60 -14,-94l-26 -219c-7,1 -15,2 -21,2 -7,0 -14,-1 -22,-2 -33,74 -67,146 -104,214 -37,-68 -72,-139 -106,-214 -7,1 -14,2 -20,2 -7,0 -13,-1 -20,-2l-29 216c-2,14 -7,46 -15,97zm590 0c13,-1 26,-2 39,-2 13,0 27,1 40,2 -5,-49 -5,-101 -5,-156 0,-58 1,-111 5,-157 -13,2 -26,3 -40,3 -13,0 -26,-1 -39,-3 4,45 5,98 5,157 0,52 -1,104 -5,156zm303 0c7,-1 13,-2 20,-2 6,0 12,1 19,2 -1,-49 -2,-78 -2,-85l0 -134c69,73 136,146 200,219 7,-1 14,-2 20,-2 7,0 14,1 20,2 -3,-28 -3,-59 -3,-96l0 -26c0,-95 0,-159 4,-191 -7,2 -14,2 -21,2 -5,0 -12,0 -18,-2 1,91 2,143 2,157l0 54c-66,-71 -129,-141 -192,-211 -8,2 -16,2 -24,2 -9,0 -17,0 -26,-2 4,48 6,101 6,160 0,54 -2,106 -5,153zm549 -122c12,-36 26,-71 42,-105 15,34 29,69 40,105 -14,0 -28,1 -41,1 -14,0 -27,-1 -41,-1zm-86 122c8,-1 14,-1 21,-1 7,0 14,0 20,1 11,-28 21,-59 33,-92 17,-1 35,-1 53,-1 18,0 36,0 54,1 9,29 20,59 30,92 13,-1 26,-2 39,-2 14,0 27,1 40,2 -47,-109 -90,-215 -128,-319 -5,1 -10,1 -16,1 -6,0 -12,0 -18,-1 -39,108 -81,215 -128,319zm478 0c13,-1 26,-2 39,-2 13,0 25,1 37,2 -2,-30 -4,-59 -4,-87l0 -62c35,51 65,101 92,149 14,-1 28,-2 41,-2 14,0 28,1 41,2l-103 -154c49,-12 74,-39 74,-81 0,-53 -37,-79 -110,-79 -43,0 -70,2 -82,2 -6,0 -15,0 -25,-1 5,49 6,101 6,157 0,53 -1,104 -6,156zm72 -163l0 -68c0,-18 0,-37 1,-56 4,0 7,0 10,0 43,0 63,17 63,56 0,48 -22,68 -72,68l-2 0zm413 41c12,-36 25,-71 41,-105 15,34 29,69 40,105 -14,0 -27,1 -41,1 -13,0 -27,-1 -40,-1zm-87 122c8,-1 15,-1 21,-1 7,0 14,0 20,1 11,-28 21,-59 33,-92 18,-1 35,-1 53,-1 18,0 36,0 54,1 10,29 20,59 30,92 14,-1 26,-2 40,-2 13,0 26,1 39,2 -47,-109 -90,-215 -127,-319 -5,1 -11,1 -17,1 -6,0 -12,0 -18,-1 -39,108 -81,215 -128,319zm532 -131c1,13 1,26 1,39 0,29 -1,60 -4,92 13,-1 25,-2 38,-2 13,0 26,1 38,2 -2,-30 -3,-60 -3,-88 0,-17 0,-33 1,-49 29,-59 62,-118 100,-176 -8,1 -16,2 -24,2 -9,0 -17,-1 -25,-2 -19,49 -41,96 -67,141 -26,-45 -50,-92 -72,-141 -14,1 -28,2 -42,2 -14,0 -29,-1 -43,-2 34,60 69,121 102,182zm389 9c12,-36 26,-71 42,-105 15,34 28,69 40,105 -14,0 -28,1 -41,1 -14,0 -27,-1 -41,-1zm-87 122c8,-1 15,-1 22,-1 7,0 14,0 20,1 10,-28 21,-59 32,-92 18,-1 36,-1 54,-1 18,0 36,0 54,1 9,29 19,59 30,92 13,-1 26,-2 39,-2 14,0 27,1 40,2 -48,-109 -90,-215 -128,-319 -5,1 -10,1 -16,1 -6,0 -12,0 -19,-1 -38,108 -80,215 -128,319zm475 0c7,-1 14,-2 20,-2 6,0 13,1 19,2 -1,-49 -1,-78 -1,-85l0 -134c69,73 136,146 200,219 7,-1 13,-2 20,-2 7,0 13,1 20,2 -4,-28 -4,-59 -4,-96l0 -26c0,-95 0,-159 4,-191 -7,2 -13,2 -20,2 -6,0 -13,0 -19,-2 1,91 2,143 2,157l0 54c-65,-71 -129,-141 -191,-211 -9,2 -17,2 -25,2 -8,0 -17,0 -25,-2 3,48 5,101 5,160 0,54 -1,106 -5,153z"/>
  <path class="fil1" d="M2058 1654c6,-1 13,-2 19,-2 7,0 13,1 20,2 -1,-49 -2,-78 -2,-85l0 -134c69,73 136,146 200,219 7,-1 14,-2 20,-2 7,0 14,1 20,2 -3,-28 -4,-59 -4,-96l0 -26c0,-95 1,-159 4,-191 -6,2 -13,2 -20,2 -6,0 -12,0 -19,-1 2,90 2,142 2,156l0 54c-65,-71 -129,-141 -191,-210 -8,1 -16,1 -25,1 -8,0 -16,0 -25,-1 4,47 6,100 6,159 0,54 -2,106 -5,153zm503 0c22,-2 44,-2 66,-2 25,0 62,1 111,2 -1,-7 -2,-14 -2,-22 0,-6 1,-12 2,-18 -41,4 -75,6 -103,7 -2,-15 -2,-35 -2,-61l0 -55c29,0 63,2 103,4 -1,-7 -2,-13 -2,-20 0,-7 1,-13 2,-19 -32,1 -67,2 -103,4l0 -54c0,-14 0,-29 2,-45 27,1 62,2 103,5 -1,-6 -2,-13 -2,-19 0,-7 1,-13 2,-20 -27,2 -55,2 -85,2 -29,0 -60,0 -92,-2 5,41 5,85 5,134l0 23c0,59 0,111 -5,156zm452 0c7,-1 15,-2 23,-2 8,0 16,1 23,2 26,-79 52,-152 79,-222 27,75 52,148 74,222 8,-1 16,-2 24,-2 7,0 16,1 23,2 37,-115 71,-219 104,-313 -7,2 -14,2 -21,2 -7,0 -14,0 -21,-2 -18,74 -40,150 -67,226 -26,-75 -51,-151 -74,-226 -7,2 -15,2 -23,2 -8,0 -15,0 -23,-2 -26,81 -53,157 -78,229 -23,-75 -43,-151 -61,-229 -13,2 -26,2 -39,2 -13,0 -26,0 -39,-2 37,105 69,210 96,313zm666 0c10,-1 21,-1 33,-1 21,0 47,1 78,1 125,0 189,-55 189,-164 0,-52 -19,-95 -52,-120 -30,-24 -67,-29 -119,-29 -32,0 -63,2 -93,2 -12,0 -23,-1 -36,-2 5,40 5,84 5,132l0 65c0,43 0,81 -5,116zm74 -28c-1,-40 -1,-78 -1,-114 0,-51 0,-99 2,-144 14,0 25,-1 31,-1 83,0 120,36 120,127 0,90 -41,135 -121,135 -9,0 -20,-1 -31,-3zm439 28c22,-2 44,-2 66,-2 25,0 62,1 111,2 0,-7 -1,-14 -1,-22 0,-6 0,-12 1,-18 -41,4 -75,6 -103,7 -2,-15 -2,-35 -2,-61l0 -55c29,0 63,2 103,4 -1,-7 -2,-13 -2,-20 0,-7 1,-13 2,-19 -32,1 -66,2 -103,4l0 -54c0,-14 0,-29 2,-45 27,1 62,2 103,5 -1,-6 -2,-13 -2,-19 0,-7 1,-13 2,-20 -27,2 -55,2 -85,2 -29,0 -60,0 -92,-2 5,41 6,85 6,134l0 23c0,59 0,111 -6,156zm390 0c31,-2 59,-3 85,-3 28,0 60,1 95,3 -1,-7 -2,-13 -2,-19 0,-7 1,-14 2,-20 -37,4 -72,6 -105,7 -3,-33 -3,-75 -3,-124 0,-58 1,-110 5,-157 -12,2 -25,3 -38,3 -13,0 -26,-1 -39,-3 5,46 6,98 6,157 0,54 -1,105 -6,156zm378 0c13,-1 26,-2 39,-2 13,0 26,1 38,2 -2,-22 -3,-45 -3,-68l0 -83c23,-1 46,-2 69,-2 22,0 45,1 68,2l0 83c0,23 -1,46 -3,68 13,-1 25,-2 38,-2 13,0 26,1 39,2 -5,-49 -6,-101 -6,-156 0,-57 2,-110 6,-157 -13,2 -26,3 -39,3 -13,0 -25,-1 -38,-3 2,25 3,50 3,73l0 55c-23,1 -46,1 -68,1 -23,0 -46,0 -69,-1l0 -55c0,-23 1,-48 3,-73 -12,2 -25,3 -38,3 -13,0 -26,-1 -39,-3 5,47 6,100 6,157 0,55 -1,107 -6,156zm513 0c14,-1 27,-2 40,-2 13,0 26,1 40,2 -5,-49 -5,-101 -5,-156 0,-58 0,-111 5,-157 -13,2 -27,3 -40,3 -13,0 -26,-1 -40,-3 4,46 5,98 5,157 0,52 0,104 -5,156z"/>
 </g>
</svg>
