<?xml version="1.0" encoding="UTF-8"?>
<!DOCTYPE svg PUBLIC "-//W3C//DTD SVG 1.0//EN" "http://www.w3.org/TR/2001/REC-SVG-20010904/DTD/svg10.dtd">
<!-- Creator: CorelDRAW X8 -->
<svg xmlns="http://www.w3.org/2000/svg" xml:space="preserve" width="356px" height="53px" version="1.0" style="shape-rendering:geometricPrecision; text-rendering:geometricPrecision; image-rendering:optimizeQuality; fill-rule:evenodd; clip-rule:evenodd"
viewBox="0 0 23744 3536"
 xmlns:xlink="http://www.w3.org/1999/xlink">
 <defs>
  <style type="text/css">
   <![CDATA[
    .fil0 {fill:black}
    .fil1 {fill:#ED3237}
    .fil2 {fill:#FAA831}
    .fil3 {fill:black;fill-rule:nonzero}
    .fil4 {fill:#B5090E;fill-rule:nonzero}
   ]]>
  </style>
 </defs>
 <g id="Layer_x0020_1">
  <metadata id="CorelCorpID_0Corel-Layer"/>
  <path class="fil0" d="M475 3516c-8,-7 -19,-15 -22,-24 2,-74 4,-148 7,-221 -3,-61 -6,-121 -8,-181 7,-8 14,-16 22,-23 79,0 158,1 237,2 62,5 136,28 154,93 -1,9 -1,18 -1,28 -12,51 -61,71 -108,83 0,0 0,1 0,2 42,8 84,24 114,54 4,7 9,15 15,24 1,7 3,15 6,24 0,9 0,18 1,27 -10,83 -101,97 -169,110 -83,0 -166,1 -248,2zm472 20c-15,-21 -29,-41 -44,-62 69,-97 138,-193 208,-289 -15,-20 -30,-41 -45,-60 24,-17 116,-82 126,-77 45,69 91,139 137,209 48,65 97,131 146,197 -44,27 -87,53 -131,81 -62,-95 -124,-190 -186,-285 -27,34 -53,67 -79,100 -44,62 -88,123 -132,186zm585 -19c-10,-8 -19,-14 -28,-21 2,-68 3,-136 6,-203 -3,-69 -4,-138 -6,-207 7,-7 15,-14 24,-21 76,1 153,2 231,3 14,2 28,5 42,7 62,21 100,57 108,124 -2,36 -8,63 -31,93 -29,28 -69,43 -106,54 -41,4 -80,8 -120,12 3,53 8,106 15,159 -45,0 -91,0 -135,0zm115 -194c0,-74 1,-148 3,-222 46,7 85,19 112,59 2,7 6,15 10,23 3,21 5,46 -1,66 -16,40 -57,61 -97,70 -9,1 -18,2 -27,4zm314 195c-9,-10 -17,-19 -24,-28 28,-6 55,-16 72,-38 2,-4 4,-9 7,-14 0,-9 0,-17 1,-25 -10,-54 -42,-109 -64,-158 -3,-15 -6,-29 -9,-42 -1,-11 -1,-23 -1,-34 5,-33 15,-57 39,-81 39,-28 89,-42 138,-42 7,8 15,17 22,26 -26,7 -44,13 -64,31 -4,6 -7,11 -10,17 -3,22 0,45 7,66 17,44 35,89 52,134 5,28 12,57 5,86 -6,10 -12,21 -18,32 -7,7 -14,14 -22,22 -23,13 -48,24 -72,34 -21,4 -40,9 -59,14zm-1367 -244c1,-58 2,-115 3,-172 42,4 92,10 120,47 3,8 6,17 10,25 0,9 0,18 1,29 -11,57 -86,68 -134,71zm2 202c1,-57 2,-114 3,-171 55,4 128,13 152,71 17,88 -97,95 -155,100z"/>
  <path class="fil1" d="M1138 3510c-43,-14 -72,-33 -69,-83 9,-47 66,-72 109,-55 28,15 39,27 48,56 0,4 0,8 1,12 -6,51 -42,67 -89,70z"/>
  <path class="fil1" d="M533 2784c-11,-20 -37,-40 -46,-62 -12,-18 -25,-36 -38,-54 -1,-7 -1,-15 -1,-22 7,-5 8,-7 17,-7 7,3 13,7 20,12 0,-23 1,-45 2,-67 -21,-1 -41,-2 -61,-2 -9,-12 -16,-23 -23,-34 166,-1 333,-1 500,-1 -13,-22 -17,-50 -1,-71 6,-5 12,-10 18,-13 6,-2 12,-3 18,-4 40,0 67,18 100,39 7,7 42,26 19,37 -28,-22 -80,-59 -117,-36 -5,5 -9,11 -13,16 -1,11 -2,22 -2,33 415,0 829,0 1244,1 6,11 14,22 21,34 -17,0 -34,0 -51,1 -1,62 -2,124 -2,185 -12,-8 -23,-16 -35,-24 -1,-53 -1,-106 -1,-160 -18,-1 -35,-1 -53,-1 -1,37 -2,75 -2,113 -2,9 -12,17 -19,25 -7,1 -14,3 -20,5 -24,-3 -52,-13 -67,-34 -5,-8 -11,-16 -16,-23 -1,-29 -1,-57 -1,-85 -17,-1 -33,-1 -50,-1 -1,62 -1,124 -1,186 -13,-9 -26,-17 -38,-25 0,-13 0,-25 0,-37 -34,16 -62,24 -95,-1 -11,-14 -42,-53 -35,-74 15,-3 32,-10 47,-16 6,-12 3,-19 -3,-33 -32,0 -63,0 -93,0 -1,62 -1,124 -1,186 -13,-9 -25,-18 -37,-27 0,-54 0,-106 0,-159 -22,0 -44,0 -66,0 -1,28 -2,56 -2,84 -3,10 -18,22 -24,31 15,18 32,45 52,58 -4,5 -9,11 -13,16 -27,-31 -53,-67 -81,-98 -2,-5 -15,-21 -12,-29 2,-3 4,-6 6,-7 3,-1 6,-1 10,-1 7,2 24,12 28,8 0,-21 0,-41 0,-62 -31,0 -61,0 -91,0 0,62 0,124 0,185 -13,-8 -24,-16 -36,-24 -1,-54 -1,-107 -1,-160 -17,0 -34,0 -49,0 0,62 0,124 0,185 -13,-9 -26,-18 -39,-26 0,-29 0,-57 0,-86 -17,0 -35,0 -51,0 -7,6 -5,19 -6,29 -4,3 -10,2 -15,3 -19,-16 -38,-36 -38,-62 2,-2 4,-4 7,-5 33,-1 67,-1 101,-1 0,-13 1,-25 2,-37 -50,-1 -99,-1 -148,-1 -1,62 -1,124 -1,186 -13,-9 -26,-17 -38,-25 -1,-17 -1,-33 -1,-49 -21,0 -42,0 -63,0 -1,8 -2,16 -3,25 -22,11 -52,-33 -59,-48 0,-15 7,-13 21,-13 0,-26 0,-51 0,-76 -24,0 -47,0 -70,0 -1,62 -1,124 -1,186 -13,-9 -26,-17 -38,-25 -1,-54 -1,-107 -1,-160 -18,-1 -36,-1 -54,-1 -1,62 -1,124 -1,186 -13,-9 -25,-17 -37,-25 -1,-54 -1,-107 -1,-161 -16,0 -33,0 -48,0 -1,62 -2,124 -2,185 -12,-8 -24,-16 -36,-24 -1,-12 -2,-24 -2,-35 -10,5 -20,11 -31,17 -10,1 -20,3 -30,5 -28,-6 -45,-20 -63,-41 -11,2 -21,4 -31,6 -7,-3 -14,-5 -20,-7 -7,-4 -12,-9 -18,-14 -8,11 -22,20 -27,31 17,20 36,40 54,61 -6,5 -12,11 -17,16zm105 -82c-19,-9 -15,-10 -18,-28 15,-49 62,-37 96,-14 0,3 0,5 0,8 -24,14 -52,31 -78,34zm-95 -41c-7,-1 -12,-2 -18,-3 0,-25 0,-50 0,-74 64,0 127,0 192,0 -1,19 -2,37 -2,56 -12,-12 -24,-22 -35,-32 -39,-6 -68,-4 -92,30 -2,5 -4,11 -5,17 -11,6 -28,5 -40,6zm503 0c0,-25 0,-51 0,-77 21,0 43,0 65,0 0,25 0,51 0,77 -21,0 -43,0 -65,0zm709 30c-17,-9 -18,-14 -10,-30 13,-4 34,-9 43,-19 0,-20 -15,-39 -15,-58 20,0 40,0 61,0 0,26 -1,52 -1,78 -5,2 -10,6 -14,10 -15,5 -29,12 -43,18 -7,0 -14,0 -21,1zm220 3c-7,-2 -10,-6 -13,-13 0,-32 0,-64 0,-97 15,0 31,0 47,0 0,28 -1,56 -1,84 -4,21 -13,21 -33,26z"/>
  <path class="fil2" d="M1265 2443c-26,-5 -51,-10 -76,-14 -22,-8 -44,-15 -65,-23 -33,-16 -66,-36 -97,-58 -21,-22 -42,-42 -62,-62 -22,-30 -40,-61 -57,-94 -16,-44 -27,-86 -34,-132 -2,-333 -4,-665 -6,-997 18,0 38,0 57,0 4,334 8,667 13,1002 6,52 25,95 49,142 15,21 31,41 47,61 30,35 73,60 113,80 14,5 28,11 42,16 16,4 32,7 48,11 26,1 52,3 79,5 42,-5 85,-15 125,-30 47,-21 88,-51 125,-87 9,-12 18,-23 27,-34 9,-17 18,-34 29,-50 17,-39 29,-82 34,-124 2,-330 5,-661 8,-991 19,0 39,0 58,0 -1,325 -1,652 -1,978 -9,108 -50,203 -128,282 -11,9 -22,19 -33,29 -15,9 -30,19 -43,30 -67,35 -137,52 -210,59 -14,0 -28,0 -42,1z"/>
  <path class="fil1" d="M1273 1987c-110,-14 -198,-70 -251,-167 -9,-23 -19,-46 -25,-70 -6,-38 -8,-76 -3,-114 12,-74 51,-133 105,-183 26,-18 52,-34 79,-48 16,-6 33,-10 49,-15 39,-6 79,-9 117,-3 69,12 128,49 176,100 7,9 14,18 21,28 28,43 42,86 51,137 0,10 1,20 2,30 -1,15 -2,30 -3,45 -17,114 -96,205 -203,245 -15,3 -30,7 -45,11 -24,1 -47,2 -70,4z"/>
  <path class="fil0" d="M392 2925c-40,-2 -79,-3 -117,-3 0,-2 0,-3 0,-4 -48,-12 -21,-82 25,-71 0,-168 1,-335 2,-503 4,-13 11,-23 21,-33 -1,-4 -2,-8 -3,-10 0,-12 2,-15 8,-24 -23,-23 -3,-49 20,-60 8,-2 16,-4 24,-6 34,0 57,19 57,53 -2,5 -5,10 -7,15 1,4 3,8 5,12 0,16 -11,18 2,31 2,12 5,24 9,37 4,-1 10,0 15,0 8,-126 15,-250 24,-374 -24,-14 -35,-33 -16,-58 -5,-20 -9,-40 -12,-59 -7,-2 -13,-3 -19,-4 0,-35 0,-70 0,-105 -10,-8 -20,-15 -30,-22 -8,-12 -17,-24 -24,-35 -7,-22 -8,-40 -10,-61 -20,0 -37,-8 -46,-27 -1,-4 -1,-7 -1,-11 -21,-10 -23,-19 -23,-41 -18,-13 -18,-19 -20,-41 -26,-16 -47,-39 -59,-66 -4,-13 -8,-26 -11,-39 -18,2 -28,5 -43,13 -37,-37 -42,-80 -42,-129 5,-19 11,-39 16,-58 -5,-16 -11,-31 -16,-46 -2,-19 -3,-37 -4,-54 2,-16 4,-32 7,-47 -41,-2 -82,-5 -122,-7 -1,-38 -2,-75 -2,-112 22,0 45,1 68,2 3,-7 6,-12 9,-18 16,-17 3,-29 6,-49 6,-14 13,-27 19,-40 8,-12 15,-22 22,-34 1,0 2,0 4,0 22,31 67,79 36,118 5,8 9,16 14,24 20,-18 41,-35 62,-53 42,-31 88,-54 139,-64 0,-19 1,-38 2,-57 34,-7 57,9 83,24 11,-10 -2,-16 -7,-27 0,-13 1,-25 5,-38 15,-23 29,-46 45,-68 1,0 2,0 3,0 13,26 27,53 41,80 0,9 0,18 1,27 -4,7 -7,14 -10,21 4,8 10,15 15,24 51,-4 105,-11 151,-34 60,-42 119,-83 180,-124 62,-38 124,-76 189,-109 20,-9 39,-18 59,-26 -19,-24 -5,-39 16,-55 13,-5 26,-11 40,-16 -32,-159 -64,-317 -95,-475 0,-2 0,-3 0,-5 8,-2 15,-3 23,-4 1,8 3,17 5,26 2,0 4,0 6,1 34,-14 65,-15 101,-17 101,10 187,90 290,82 18,-3 37,-14 53,-21 -7,27 -22,48 -42,67 -34,17 -71,28 -109,25 8,17 38,18 54,20 12,-2 24,-5 36,-8 9,-5 23,-16 33,-16 -4,8 -7,16 -11,25 -12,10 -23,21 -34,32 -24,11 -50,23 -77,27 -19,0 -37,0 -56,1 0,6 0,11 1,17 -2,14 -11,26 -19,37 2,5 6,11 10,17 -1,5 -2,9 -2,15 22,13 30,33 40,55 -3,21 -10,31 -25,46 -8,4 -17,6 -21,14 1,0 2,0 3,1 0,14 34,27 41,40 13,5 26,10 39,14 15,11 36,34 17,54 35,16 71,33 107,50 109,58 212,134 315,202 9,5 18,10 28,15 41,11 89,27 132,23 5,-7 10,-15 15,-22 -18,-30 -10,-49 4,-79 9,-18 18,-34 28,-51 20,29 56,66 53,105 -5,7 -10,15 -13,23 1,2 3,4 5,7 10,-6 20,-13 31,-19 8,-3 17,-6 27,-7 8,0 17,1 26,1 0,19 0,38 1,58 18,3 35,8 53,12 25,14 51,28 77,42 24,19 49,39 71,61 4,0 15,-20 15,-25 -4,-7 -8,-15 -10,-21 0,-17 5,-32 11,-47 12,-17 25,-33 37,-49 16,24 32,49 44,75 0,7 0,13 0,21 -1,5 -2,11 -3,17 6,8 12,18 18,27 23,-1 46,-1 70,-1 -2,37 -3,74 -4,112 -15,-1 -113,0 -123,10 10,36 10,76 0,113 -4,11 -8,23 -12,35 6,17 11,35 17,53 0,19 0,39 -3,57 -4,13 -9,24 -13,37 -8,12 -16,24 -24,36 -19,-10 -25,-11 -48,-11 -2,11 -4,22 -6,34 -11,30 -36,54 -61,71 0,20 -5,28 -18,42 0,9 -1,17 -6,26 -5,4 -10,8 -15,12 -4,16 -15,33 -31,38 -6,0 -13,0 -18,1 -3,38 -11,68 -36,98 -9,6 -18,13 -26,19 -1,36 -2,72 -2,109 -6,0 -12,0 -17,1 -6,19 -11,38 -15,59 15,23 14,45 -13,58 7,124 16,249 24,374 5,0 10,0 16,1 1,-18 2,-33 15,-46 -2,-3 -3,-6 -4,-9 0,-10 0,-13 3,-24 -19,-36 5,-63 42,-70 7,1 15,2 23,3 27,5 41,26 38,53 -3,4 -6,8 -8,13 2,3 5,7 8,11 -2,6 -4,13 -5,21 11,5 19,21 22,32 0,87 0,173 1,260 -1,1 -2,3 -3,4 1,0 2,0 4,1 1,79 2,158 3,237 35,3 46,9 50,45 -3,10 -10,19 -16,27 -15,2 -29,4 -43,6 -634,0 -1266,2 -1899,4zm1767 -1881c0,-20 21,-45 30,-62 7,-8 14,-16 21,-25 0,-24 1,-48 2,-71 41,0 82,28 115,46 18,13 47,36 56,55 -77,11 -151,32 -224,57zm-963 -678c-10,-50 -20,-99 -30,-148 22,0 43,0 64,3 -4,6 -7,13 -11,20 -1,8 -1,16 -1,24 2,6 4,11 6,18 3,5 8,11 12,17 -8,9 -11,18 -9,32 -14,9 -21,21 -31,34zm-859 1963c-1,-2 -1,-4 -1,-5 6,-6 11,-12 18,-18 -4,-7 -8,-10 -7,-20 1,-3 3,-6 5,-9 -4,-3 -6,-7 -9,-11 -3,-26 20,-32 42,-31 11,5 26,15 21,29 -3,5 -6,10 -9,14 1,2 3,4 5,6 0,4 0,8 1,13 -4,4 -8,9 -11,14 4,5 9,11 14,16 -23,0 -46,1 -69,2zm-10 32c0,-5 0,-10 1,-14 28,0 56,0 85,0 1,3 2,8 3,13 -30,0 -59,0 -89,1zm1866 -34c2,-5 4,-10 7,-15 2,-2 5,-5 8,-7 -5,0 -11,-8 -13,-11 0,-10 1,-13 7,-19 -9,-10 -16,-17 -9,-31 10,-10 18,-10 32,-13 18,4 31,13 30,35 -4,3 -9,7 -9,13 9,6 1,18 -2,24 6,8 12,15 19,23 -24,0 -47,0 -70,1zm31 33c-14,-2 -28,-2 -41,-2 0,-5 0,-10 0,-13 29,0 59,1 88,2 0,3 0,7 0,12 -16,-1 -31,0 -47,1zm-1804 540c-44,-1 -87,-1 -131,-1 -12,-4 -14,-8 -14,-20 1,-3 4,-5 7,-7 679,-1 1358,-2 2037,-2 6,6 6,15 2,22 -8,1 -15,3 -22,5 -627,0 -1253,2 -1879,3zm1660 -2090c-16,-10 -20,-23 -13,-42 5,-12 10,-23 15,-33 1,0 3,0 5,0 9,15 15,30 21,46 -3,21 -8,26 -28,29zm-2 40c-5,-1 -10,-2 -13,-3 0,-9 2,-13 8,-18 12,0 48,-3 33,19 -10,1 -19,1 -28,2zm381 89c-19,-10 -21,-21 -10,-44 5,-8 9,-14 15,-21 2,2 4,5 7,8 13,26 26,49 -12,57zm-15 39c-1,-1 -1,-3 -1,-5 2,-5 5,-8 9,-12 12,-1 24,-2 36,-2 4,5 8,9 10,16 -19,1 -36,2 -54,3zm-303 124c-1,-2 -2,-3 -2,-4 2,-8 4,-16 6,-25 127,-52 257,-71 393,-80 -12,8 -24,15 -35,23 -29,3 -58,7 -86,10 -40,8 -80,15 -118,23 -23,5 -45,11 -67,18 -31,11 -61,23 -91,35zm-4 58c0,-10 0,-20 0,-30 17,-9 35,-17 52,-25 51,-18 102,-32 154,-45 25,-4 50,-9 75,-13 32,-5 64,-10 97,-13 12,-9 41,-33 56,-33 0,20 -1,40 -1,60 -50,5 -99,10 -148,15 -97,16 -196,40 -285,84zm-920 -699c-4,-5 -6,-21 -6,-28 7,2 14,5 20,7 0,10 -5,18 -14,21zm-57 -277c-9,-43 -19,-88 -26,-131 14,-10 31,28 35,37 5,27 16,74 -9,94zm228 37c-10,-2 -21,-3 -31,-5 -4,-7 -9,-12 -14,-18 -1,-5 -5,-21 -11,-24 1,-11 3,-22 5,-33 -5,-31 -29,-56 -43,-82 -14,0 -37,59 -43,76 0,13 0,27 3,40 -3,4 -6,7 -7,11 -1,4 -1,8 -1,13 -19,-3 -37,-6 -56,-8 7,-32 14,-61 8,-93 -6,-20 -16,-39 -24,-57 11,-12 69,-4 85,-3 19,4 40,9 59,17 51,26 110,56 168,63 12,-1 25,-2 38,-3 -41,33 -96,21 -144,14 0,24 19,40 33,56 11,5 23,9 35,15 9,1 17,2 25,4 -14,14 -69,16 -85,17zm-98 -57c-18,-8 -16,-15 -16,-33 6,-8 11,-17 17,-25 5,0 16,17 19,21 8,22 0,33 -20,37zm-4 37c-9,-5 -15,-7 -14,-19 12,-3 24,-3 37,-4 2,2 4,3 7,5 0,19 -15,16 -30,18zm4 92c-17,-3 -29,-13 -40,-24 -9,-29 4,-42 29,-52 12,0 25,0 38,1 21,13 21,18 24,40 -2,13 -16,25 -28,30 -8,1 -16,3 -23,5zm1 37c-12,0 -24,-4 -35,-7 0,-3 0,-6 0,-9 2,-2 3,-3 5,-4 22,0 45,0 68,0 12,24 -29,11 -38,20zm-2 96c-31,-5 -90,-16 -64,-60 24,-25 76,-21 108,-17 18,6 28,11 36,28 0,3 0,8 1,13 -15,30 -51,32 -81,36zm-52 52c8,-11 16,-22 24,-32 22,-1 43,-1 65,-1 7,10 15,20 23,31 -38,0 -75,1 -112,2zm-72 68c-10,-9 -13,-11 -6,-22 78,-35 182,-36 261,-4 9,4 14,11 12,22 -11,11 -63,-6 -77,-8 -39,-1 -79,-1 -118,-1 -24,4 -48,9 -72,13zm-409 270c-1,-2 -2,-2 -2,-2 25,-19 52,-37 79,-56 38,-26 77,-52 115,-78 34,-20 69,-41 104,-60 45,-22 91,-41 137,-54 13,-3 27,-6 41,-8 47,-2 98,-4 145,3 46,10 91,24 134,43 8,4 16,8 24,12 45,26 91,53 136,80 57,38 113,77 169,116 -16,-3 -32,-5 -48,-7 -98,-26 -198,-58 -297,-81 -72,-11 -144,-18 -217,-19 -44,3 -87,7 -131,11 -131,22 -258,75 -389,100zm-249 127c-34,-5 -67,-9 -101,-12 -2,-36 -2,-70 -3,-105 35,5 40,16 61,44 27,1 54,2 81,2 160,-9 316,-55 468,-102 23,-6 46,-12 69,-17 27,-6 55,-10 84,-15 27,-4 55,-6 82,-9 34,0 67,0 101,1 75,5 151,21 225,38 75,21 152,43 228,65 38,7 76,16 113,24 72,8 141,17 212,9 16,-22 32,-44 62,-42 -1,34 -2,68 -3,102 -14,3 -29,5 -44,8 -108,10 -215,1 -323,-14 -28,-5 -55,-11 -82,-16 -99,-25 -197,-50 -298,-67 -27,-2 -52,-5 -78,-7 -36,-1 -72,-2 -107,-2 -30,2 -61,5 -90,8 -141,21 -279,67 -419,90 -42,4 -83,9 -123,14 -39,1 -77,2 -115,3zm0 -130c-39,-10 -18,-54 -2,-76 1,0 2,0 4,0 8,21 36,67 -2,76zm-11 39c-5,-3 -9,-4 -14,-6 -1,-2 -1,-4 -1,-6 2,-3 4,-5 6,-7 12,0 23,-3 34,0 1,4 7,12 5,16 -10,1 -20,2 -30,3zm-361 130c-13,-2 -26,-3 -38,-4 -1,-1 -1,-2 -1,-3 2,-4 5,-8 7,-10 13,0 26,0 39,1 3,4 5,9 8,14 -5,0 -11,1 -15,2zm-10 -39c-32,-13 -12,-43 2,-63 1,0 2,0 4,0 11,17 31,45 7,61 -4,0 -9,1 -13,2zm304 104c-29,-10 -58,-21 -87,-31 -44,-9 -88,-18 -133,-27 12,-13 24,-26 37,-38 15,-11 30,-21 46,-32 17,-8 33,-15 51,-23 12,-2 25,-4 38,-6 0,22 0,45 1,68 6,8 13,17 21,26 6,11 32,47 32,62 -2,0 -4,0 -6,1zm18 57c-29,-11 -56,-22 -84,-33 -52,-14 -107,-28 -160,-37 -38,-5 -75,-10 -112,-13 -12,-8 -24,-16 -36,-23 124,0 253,27 369,67 7,3 15,7 23,10 2,9 4,19 6,28 -2,0 -4,0 -6,1zm9 59c-14,-7 -27,-13 -40,-20 -47,-17 -95,-30 -142,-44 -24,-5 -48,-10 -72,-15 -59,-8 -119,-14 -178,-18 -1,-20 -1,-41 -1,-61 14,0 43,25 55,32 26,7 57,9 83,12 97,14 211,34 296,84 0,6 2,27 -1,30zm759 1686c-297,-1 -592,-2 -888,-3 0,-155 0,-309 1,-462 48,-1 96,0 145,0 8,-130 17,-259 26,-388 0,-11 0,-21 0,-30 -13,-5 -28,-10 -20,-28 2,-1 4,-3 7,-4 0,-27 -12,-61 -19,-88 -5,0 -9,0 -13,0 0,-35 0,-69 0,-103 -56,-18 -72,-80 -59,-133 -17,3 -45,15 -52,-9 0,-4 1,-9 2,-13 -9,-2 -15,-8 -22,-14 0,-9 1,-17 2,-24 -11,-5 -20,-8 -25,-20 1,-8 2,-16 4,-24 -32,-17 -52,-32 -67,-65 -1,-16 -2,-30 -2,-45 -11,-3 -22,-5 -33,-7 -12,2 -23,4 -34,7 -15,-31 -22,-57 -20,-91 6,-22 12,-42 19,-62 -25,-39 -33,-97 -16,-139 1,-1 2,-2 4,-3 111,13 227,49 326,101 0,-15 1,-31 2,-47 0,-25 -6,-50 -10,-74 -11,-43 -34,-83 -59,-118 0,-2 0,-4 1,-5 50,2 102,4 154,7 77,-3 154,-12 231,-25 90,-22 180,-44 272,-67 59,-8 120,-17 181,-23 103,0 206,10 307,32 69,16 138,34 208,51 27,5 54,10 81,15 45,4 90,8 136,13 35,0 70,0 105,0 27,-2 62,-8 89,-4 -15,23 -30,47 -42,72 -6,15 -12,30 -16,44 -6,42 -16,85 -6,127 93,-58 215,-85 321,-103 8,0 11,15 13,21 5,37 1,87 -21,118 0,20 12,44 17,62 0,12 0,24 1,36 -3,21 -12,41 -20,60 -8,-3 -17,-6 -24,-7 -16,0 -29,1 -42,6 0,21 0,42 -10,62 -5,6 -11,14 -16,21 -15,10 -30,22 -45,29 1,7 3,13 6,20 -7,15 -11,17 -26,23 1,7 2,15 3,22 -7,7 -13,12 -21,16 0,14 3,17 -11,27 -13,1 -28,-2 -40,-7 9,46 3,82 -27,117 -10,7 -20,14 -31,17 0,34 0,69 0,104 -5,-1 -9,0 -14,1 -6,27 -13,54 -18,81 0,12 13,13 7,30 -7,3 -14,6 -20,8 9,139 18,279 28,419 48,-1 96,-1 145,-1 1,153 2,307 3,461 -353,2 -706,4 -1058,6z"/>
  <path class="fil3" d="M2656 742c-27,0 -51,9 -70,28 -19,20 -30,45 -30,72 0,26 10,51 29,70 19,19 44,30 71,30 26,0 51,-10 71,-29 19,-19 29,-44 29,-71 0,-27 -10,-52 -28,-70 -20,-20 -45,-30 -72,-30zm0 14c24,0 45,9 61,26 16,16 25,37 25,61 0,22 -9,44 -25,59 -17,16 -39,25 -62,25 -22,0 -43,-9 -59,-26 -16,-16 -25,-37 -25,-59 0,-23 9,-44 26,-61 16,-16 36,-25 59,-25zm-41 28l0 112 24 0 0 -47 18 0 22 47 27 0 -25 -51c16,-3 25,-15 25,-31 0,-20 -16,-30 -48,-30l-43 0zm24 15l15 0c18,0 27,5 27,18 0,12 -8,17 -26,17l-16 0 0 -35z"/>
  <path class="fil4" d="M3929 1460c0,96 -27,173 -80,232 -53,60 -120,89 -202,89 -93,0 -167,-13 -224,-41l0 -84c28,15 62,28 103,37 41,9 81,13 121,13 59,0 108,-22 146,-67 39,-45 58,-103 58,-172 0,-65 -14,-115 -41,-153 -27,-38 -79,-75 -155,-113 -60,-30 -105,-60 -135,-88 -29,-28 -51,-62 -66,-99 -14,-38 -21,-83 -21,-136 0,-57 12,-108 35,-152 23,-45 56,-80 98,-104 42,-25 88,-37 137,-37 46,0 87,5 124,15 36,10 65,21 87,32l-31 75c-59,-30 -118,-46 -180,-46 -57,0 -103,20 -139,59 -36,39 -54,91 -54,155 0,66 13,116 39,152 26,36 77,74 153,112 78,39 136,84 172,135 36,51 55,113 55,186zm662 305l-119 -585c-1,-5 -2,-9 -3,-14 -1,-5 -9,-56 -25,-153l-2 0 -11 68 -18 99 -124 585 -89 0 -188 -864 75 0 108 503 50 263 5 0c9,-76 25,-164 46,-265l108 -501 79 0 108 503c9,38 24,125 46,263l5 0c1,-18 9,-62 23,-132 14,-71 59,-282 135,-634l75 0 -195 864 -89 0zm746 0l-9 -121 -4 0c-41,92 -104,137 -187,137 -57,0 -102,-22 -136,-67 -34,-45 -51,-105 -51,-181 0,-82 24,-147 73,-195 50,-48 119,-74 208,-78l93 -5 0 -72c0,-80 -10,-139 -30,-176 -20,-37 -53,-55 -100,-55 -49,0 -100,16 -151,48l-33 -60c60,-37 123,-55 189,-55 71,0 122,22 153,67 32,45 47,120 47,225l0 588 -62 0zm-184 -49c54,0 96,-27 127,-80 29,-53 44,-129 44,-226l0 -90 -90 5c-69,3 -121,23 -154,57 -34,35 -51,86 -51,152 0,63 11,109 34,138 22,29 52,44 90,44zm1204 49l0 -588c0,-145 -42,-217 -127,-217 -58,0 -100,25 -126,76 -26,50 -39,125 -39,224l0 505 -75 0 0 -588c0,-73 -10,-128 -30,-164 -21,-35 -54,-53 -97,-53 -57,0 -99,26 -125,78 -26,51 -39,136 -39,253l0 474 -75 0 0 -864 63 0 7 121 7 0c34,-92 93,-137 176,-137 47,0 85,12 113,38 27,25 47,62 59,111 21,-53 46,-91 77,-114 30,-24 69,-35 117,-35 66,0 113,25 144,75 30,50 45,130 45,241l0 564 -75 0zm376 0l-75 0 0 -864 75 0 0 864zm-86 -1103c0,-24 4,-42 14,-56 10,-13 23,-20 38,-20 14,0 26,7 34,20 9,14 13,32 13,56 0,22 -4,41 -13,54 -8,14 -20,20 -34,20 -15,0 -28,-6 -38,-20 -10,-13 -14,-32 -14,-54zm704 1103l0 -595c0,-144 -42,-215 -127,-215 -65,0 -112,27 -142,80 -30,54 -45,139 -45,256l0 474 -76 0 0 -864 64 0 6 121 7 0c18,-44 44,-78 78,-101 34,-24 71,-36 109,-36 67,0 118,22 151,67 33,45 50,117 50,216l0 597 -75 0zm634 0l-10 -121 -3 0c-41,92 -104,137 -188,137 -56,0 -101,-22 -135,-67 -35,-45 -52,-105 -52,-181 0,-82 25,-147 74,-195 50,-48 119,-74 208,-78l93 -5 0 -72c0,-80 -10,-139 -30,-176 -20,-37 -54,-55 -100,-55 -50,0 -100,16 -152,48l-32 -60c60,-37 123,-55 188,-55 72,0 123,22 154,67 31,45 47,120 47,225l0 588 -62 0zm-184 -49c54,0 96,-27 126,-80 30,-53 45,-129 45,-226l0 -90 -90 5c-69,3 -121,23 -155,57 -33,35 -50,86 -50,152 0,63 11,109 33,138 23,29 53,44 91,44zm710 -831c27,0 52,3 76,11l-19 76c-19,-8 -38,-12 -59,-12 -29,0 -56,15 -81,44 -25,31 -45,72 -60,126 -14,54 -21,113 -21,177l0 458 -76 0 0 -864 62 0 9 152 5 0c40,-112 95,-168 164,-168zm504 880l-9 -121 -4 0c-41,92 -104,137 -187,137 -57,0 -102,-22 -136,-67 -34,-45 -51,-105 -51,-181 0,-82 24,-147 73,-195 50,-48 119,-74 208,-78l93 -5 0 -72c0,-80 -10,-139 -30,-176 -20,-37 -53,-55 -100,-55 -49,0 -100,16 -151,48l-33 -60c60,-37 123,-55 189,-55 71,0 122,22 153,67 32,45 47,120 47,225l0 588 -62 0zm-184 -49c54,0 96,-27 127,-80 30,-53 44,-129 44,-226l0 -90 -90 5c-69,3 -121,23 -154,57 -34,35 -51,86 -51,152 0,63 11,109 34,138 22,29 52,44 90,44zm579 47l-216 -862 77 0 130 539c16,65 31,138 45,219l6 0c10,-71 24,-144 42,-221l128 -537 76 0 -252 1027c-19,75 -43,132 -73,171 -30,38 -70,57 -120,57 -20,0 -43,-4 -68,-13l0 -68c21,7 42,11 62,11 32,0 57,-14 75,-41 19,-27 35,-71 50,-132l38 -150zm743 2l-10 -121 -3 0c-41,92 -104,137 -188,137 -56,0 -101,-22 -136,-67 -34,-45 -51,-105 -51,-181 0,-82 25,-147 74,-195 49,-48 119,-74 208,-78l93 -5 0 -72c0,-80 -10,-139 -30,-176 -20,-37 -54,-55 -100,-55 -50,0 -100,16 -152,48l-33 -60c60,-37 123,-55 189,-55 71,0 123,22 154,67 31,45 47,120 47,225l0 588 -62 0zm-184 -49c54,0 96,-27 126,-80 30,-53 45,-129 45,-226l0 -90 -90 5c-69,3 -121,23 -155,57 -34,35 -50,86 -50,152 0,63 11,109 33,138 22,29 53,44 91,44zm860 49l0 -595c0,-144 -42,-215 -127,-215 -65,0 -112,27 -142,80 -30,54 -45,139 -45,256l0 474 -76 0 0 -864 64 0 6 121 7 0c19,-44 44,-78 78,-101 35,-24 71,-36 110,-36 66,0 117,22 150,67 34,45 50,117 50,216l0 597 -75 0zm1061 0l-102 -422 -283 0 -101 422 -81 0 280 -1164 80 0 287 1164 -80 0zm-121 -501l-102 -434c-11,-49 -19,-95 -25,-138 -5,46 -12,92 -22,138l-100 434 249 0zm390 73l49 -87 213 -349 82 0 -199 318 216 546 -79 0 -188 -476 -95 125 0 351 -76 0 0 -1239 76 0 0 666 -6 145 7 0zm825 212c0,72 -19,129 -57,171 -38,41 -94,61 -166,61 -39,0 -74,-5 -103,-15 -30,-10 -53,-21 -69,-33l0 -89c19,20 45,36 78,48 32,12 65,17 99,17 45,0 80,-14 105,-43 26,-30 38,-68 38,-117 0,-38 -9,-71 -27,-97 -19,-26 -53,-56 -105,-90 -59,-37 -99,-67 -121,-89 -21,-22 -38,-47 -50,-75 -11,-27 -17,-60 -17,-98 0,-62 20,-114 62,-154 42,-41 96,-61 160,-61 70,0 128,16 175,49l-39 66c-44,-29 -90,-44 -139,-44 -45,0 -80,13 -106,40 -27,26 -40,61 -40,104 0,38 9,70 27,95 18,26 56,58 114,94 58,38 97,68 118,90 22,23 37,48 48,75 10,28 15,59 15,95zm562 216l0 -595c0,-78 -10,-134 -31,-166 -20,-33 -54,-49 -100,-49 -61,0 -107,27 -138,81 -31,54 -46,139 -46,256l0 473 -76 0 0 -1239 76 0 0 402c0,37 -1,67 -3,92l6 0c17,-43 43,-76 77,-100 34,-24 70,-35 107,-35 74,0 125,24 156,71 31,48 47,119 47,214l0 595 -75 0zm633 0l-9 -121 -3 0c-42,92 -105,137 -188,137 -57,0 -102,-22 -136,-67 -34,-45 -51,-105 -51,-181 0,-82 24,-147 73,-195 50,-48 119,-74 208,-78l94 -5 0 -72c0,-80 -10,-139 -31,-176 -20,-37 -53,-55 -100,-55 -49,0 -100,16 -151,48l-33 -60c60,-37 123,-55 189,-55 71,0 122,22 153,67 32,45 48,120 48,225l0 588 -63 0zm-184 -49c54,0 97,-27 127,-80 30,-53 45,-129 45,-226l0 -90 -90 5c-70,3 -122,23 -155,57 -34,35 -51,86 -51,152 0,63 11,109 34,138 22,29 52,44 90,44zm710 -831c28,0 53,3 76,11l-18 76c-19,-8 -39,-12 -59,-12 -29,0 -57,15 -82,44 -25,31 -45,72 -59,126 -14,54 -22,113 -22,177l0 458 -75 0 0 -864 62 0 8 152 5 0c41,-112 95,-168 164,-168zm381 896c-168,0 -252,-149 -252,-446 0,-147 21,-259 63,-335 42,-77 104,-115 186,-115 38,0 75,11 110,33 35,22 62,53 83,92l7 0 -4 -96 0 -388 76 0 0 1239 -62 0 -7 -121 -7 0c-20,44 -47,78 -80,102 -33,24 -71,35 -113,35zm5 -67c60,0 107,-28 139,-84 33,-56 49,-138 49,-247l0 -49c0,-130 -15,-226 -47,-287 -32,-60 -80,-91 -144,-91 -63,0 -107,33 -134,98 -27,65 -41,159 -41,282 0,124 14,218 43,282 28,64 73,96 135,96zm882 51l0 -595c0,-78 -10,-134 -31,-166 -20,-33 -53,-49 -100,-49 -61,0 -107,27 -138,81 -30,54 -46,139 -46,256l0 473 -75 0 0 -1239 75 0 0 402c0,37 -1,67 -3,92l7 0c17,-43 42,-76 76,-100 35,-24 70,-35 107,-35 74,0 126,24 157,71 30,48 46,119 46,214l0 595 -75 0zm634 0l-10 -121 -3 0c-41,92 -104,137 -188,137 -56,0 -101,-22 -136,-67 -34,-45 -51,-105 -51,-181 0,-82 25,-147 74,-195 49,-48 119,-74 208,-78l93 -5 0 -72c0,-80 -10,-139 -30,-176 -20,-37 -54,-55 -101,-55 -49,0 -100,16 -151,48l-33 -60c60,-37 123,-55 189,-55 71,0 123,22 154,67 31,45 47,120 47,225l0 588 -62 0zm-184 -49c54,0 96,-27 126,-80 30,-53 45,-129 45,-226l0 -90 -90 5c-70,3 -121,23 -155,57 -34,35 -50,86 -50,152 0,63 11,109 33,138 22,29 52,44 91,44zm1204 49l0 -588c0,-145 -43,-217 -128,-217 -58,0 -100,25 -126,76 -26,50 -38,125 -38,224l0 505 -75 0 0 -588c0,-73 -10,-128 -31,-164 -21,-35 -53,-53 -97,-53 -57,0 -98,26 -124,78 -26,51 -39,136 -39,253l0 474 -76 0 0 -864 64 0 6 121 7 0c35,-92 93,-137 176,-137 48,0 85,12 113,38 27,25 48,62 60,111 20,-53 46,-91 76,-114 30,-24 69,-35 118,-35 65,0 113,25 143,75 30,50 45,130 45,241l0 564 -74 0zm429 -145c-35,120 -79,238 -132,355l-50 0c39,-135 66,-260 79,-373l92 0 11 18zm1138 145l-100 0 -440 -1044 -6 0c6,72 10,142 10,209l0 835 -77 0 0 -1164 101 0 437 1032 5 0c-4,-87 -7,-160 -7,-218l0 -814 77 0 0 1164zm485 16c-91,0 -162,-39 -211,-116 -49,-78 -73,-187 -73,-326 0,-147 22,-260 65,-338 44,-77 107,-116 189,-116 72,0 128,34 170,102 41,68 62,160 62,276l0 70 -409 0c1,126 19,220 53,282 35,63 87,94 157,94 54,0 111,-17 171,-53l0 73c-55,35 -113,52 -174,52zm-34 -828c-105,0 -162,104 -172,311l332 0c0,-95 -14,-170 -43,-226 -29,-57 -68,-85 -117,-85zm872 812l-119 -585c-1,-5 -2,-9 -3,-14 -1,-5 -9,-56 -25,-153l-2 0 -11 68 -18 99 -124 585 -89 0 -188 -864 75 0 108 503 50 263 5 0c9,-76 25,-164 46,-265l108 -501 79 0 108 503c9,38 24,125 46,263l5 0c1,-18 9,-62 23,-132 14,-71 59,-282 135,-634l75 0 -195 864 -89 0zm1311 -593c0,395 -124,593 -371,593l-207 0 0 -1164 212 0c120,0 211,48 273,145 62,97 93,239 93,426zm-82 5c0,-164 -25,-289 -73,-375 -48,-86 -119,-129 -214,-129l-131 0 0 1020 124 0c102,0 175,-44 223,-132 47,-88 71,-216 71,-384zm526 604c-91,0 -161,-39 -210,-116 -49,-78 -74,-187 -74,-326 0,-147 22,-260 66,-338 44,-77 107,-116 189,-116 71,0 128,34 169,102 42,68 62,160 62,276l0 70 -409 0c1,126 19,220 54,282 34,63 86,94 156,94 55,0 112,-17 171,-53l0 73c-55,35 -113,52 -174,52zm-34 -828c-104,0 -161,104 -171,311l332 0c0,-95 -15,-170 -44,-226 -29,-57 -68,-85 -117,-85zm501 812l-76 0 0 -1239 76 0 0 1239zm618 0l0 -595c0,-78 -10,-134 -31,-166 -20,-33 -53,-49 -100,-49 -61,0 -107,27 -138,81 -30,54 -46,139 -46,256l0 473 -75 0 0 -1239 75 0 0 402c0,37 -1,67 -3,92l7 0c17,-43 42,-76 76,-100 35,-24 70,-35 107,-35 74,0 126,24 157,71 30,48 46,119 46,214l0 595 -75 0zm375 0l-76 0 0 -864 76 0 0 864zm-87 -1103c0,-24 5,-42 15,-56 9,-13 22,-20 37,-20 15,0 26,7 35,20 8,14 12,32 12,56 0,22 -4,41 -12,54 -9,14 -20,20 -35,20 -15,0 -28,-6 -37,-20 -10,-13 -15,-32 -15,-54z"/>
  <path class="fil4" d="M3423 3212c31,-3 59,-5 82,-5 72,0 141,5 207,5 180,0 281,-86 281,-226 0,-138 -86,-203 -262,-203l0 -6c156,-11 241,-81 241,-191 0,-123 -86,-186 -261,-186 -43,0 -89,3 -138,3 -30,0 -79,-1 -150,-3 13,116 13,252 13,406l0 106c0,111 -1,210 -13,300zm191 -69c-4,-65 -5,-122 -5,-168l0 -154c13,-2 25,-2 35,-2 106,0 163,57 163,163 0,108 -56,167 -152,167 -13,0 -26,-3 -41,-6zm-6 -388l0 -140c0,-55 2,-105 8,-147 13,-2 26,-3 38,-3 94,0 144,47 144,133 0,109 -54,158 -167,158 -7,0 -15,-1 -23,-1zm648 139c31,-91 67,-183 109,-272 39,89 73,181 103,272 -36,1 -71,3 -106,3 -35,0 -70,-2 -106,-3zm-224 318c20,-3 38,-4 56,-4 18,0 35,1 51,4 27,-73 55,-152 84,-239 47,-3 93,-3 139,-3 47,0 93,0 139,3 25,75 51,153 79,239 34,-4 67,-5 102,-5 34,0 69,1 102,5 -122,-283 -233,-559 -330,-827 -13,2 -28,3 -43,3 -15,0 -31,-1 -48,-3 -99,280 -209,557 -331,827zm827 0c32,-4 64,-6 97,-6 34,0 67,2 100,6 -8,-95 -13,-155 -13,-177l0 -175c13,0 26,1 39,1 220,0 327,-80 327,-248 0,-150 -87,-214 -270,-214 -77,0 -142,6 -197,6 -24,0 -51,-2 -83,-5 11,121 14,258 14,406 0,143 -2,277 -14,406zm183 -416l0 -196c0,-44 4,-88 8,-132 13,-2 25,-3 37,-3 91,0 134,50 134,154 0,126 -52,177 -179,177zm438 375c52,39 122,56 213,56 183,0 299,-108 299,-267 0,-66 -21,-117 -63,-161 -35,-35 -98,-60 -174,-100 -84,-44 -130,-72 -130,-137 0,-62 47,-105 117,-105 74,0 135,43 159,114l13 0c10,-39 23,-83 39,-131 -55,-38 -117,-55 -190,-55 -173,0 -279,103 -279,242 0,132 79,184 221,260 86,47 137,75 137,145 0,71 -51,120 -133,120 -88,0 -152,-52 -174,-145l-15 0c-12,61 -25,115 -40,164zm926 0c51,39 121,56 213,56 183,0 298,-108 298,-267 0,-66 -20,-117 -63,-161 -34,-35 -97,-60 -173,-100 -85,-44 -130,-72 -130,-137 0,-62 47,-105 117,-105 73,0 135,43 159,114l13 0c9,-39 23,-83 39,-131 -56,-38 -117,-55 -190,-55 -173,0 -279,103 -279,242 0,132 78,184 221,260 85,47 137,75 137,145 0,71 -52,120 -134,120 -87,0 -152,-52 -173,-145l-16 0c-11,61 -24,115 -39,164zm737 41c23,-4 44,-6 67,-6 22,0 45,2 66,6 37,-126 76,-254 119,-386 45,141 84,269 116,386 23,-4 44,-6 66,-6 21,0 44,2 65,6 58,-194 123,-383 193,-568 -16,3 -31,4 -45,4 -16,0 -31,-1 -47,-4 -34,119 -75,253 -120,400 -45,-149 -83,-282 -115,-400 -23,3 -45,4 -68,4 -24,0 -46,-1 -69,-4 -33,128 -72,260 -117,400 -34,-112 -72,-245 -116,-400 -28,3 -58,4 -86,4 -30,0 -59,-1 -87,-4 62,185 122,373 178,568zm1041 -313l0 138c0,74 -31,110 -82,110 -49,0 -74,-34 -74,-102 0,-83 48,-125 156,-146zm5 238c13,57 51,85 107,85 37,0 82,-8 125,-26l0 -30 -4 0c-70,0 -78,-29 -78,-114l0 -22 3 -207 0 -6c0,-122 -78,-190 -221,-190 -75,0 -143,30 -211,90 10,28 19,54 26,76 37,-62 79,-91 133,-91 68,0 113,45 113,117 0,6 0,13 -1,21 -48,32 -115,45 -188,70 -85,28 -125,75 -125,151 0,102 61,165 160,165 70,0 128,-32 161,-89zm311 75c30,-4 58,-6 87,-6 30,0 58,2 86,6 -3,-41 -5,-78 -5,-109l0 -187c0,-123 18,-187 96,-187 92,0 95,76 95,235 0,65 -2,147 -9,248 29,-4 58,-6 88,-6 29,0 59,2 89,6 -3,-41 -5,-78 -5,-109l0 -187c0,-124 19,-187 97,-187 86,0 95,70 95,215 0,77 -3,165 -10,268 28,-4 57,-6 86,-6 30,0 60,2 91,6 -4,-71 -6,-143 -6,-217l0 -73c0,-110 -1,-185 -44,-235 -32,-36 -79,-57 -137,-57 -82,0 -142,36 -189,111 -27,-73 -85,-111 -165,-111 -77,0 -129,34 -175,92l0 -78c-26,3 -53,4 -82,4 -27,0 -54,-1 -83,-4 5,126 7,220 7,283 0,60 -2,156 -7,285zm1034 -782c0,50 39,89 89,89 50,0 90,-39 90,-89 0,-50 -39,-91 -89,-91 -51,0 -90,41 -90,91zm0 782c30,-4 59,-6 89,-6 31,0 61,2 89,6 -6,-97 -9,-191 -9,-283 0,-102 3,-198 9,-285 -28,3 -58,4 -89,4 -30,0 -59,-1 -89,-4 6,87 10,183 10,285 0,92 -4,185 -10,283zm327 0c28,-4 57,-6 87,-6 28,0 58,2 86,6 -6,-124 -8,-219 -8,-286 0,-131 24,-196 101,-196 87,0 95,65 95,205 0,120 -3,212 -9,277 29,-4 58,-6 88,-6 29,0 59,2 89,6 -6,-66 -9,-132 -9,-201 0,-67 2,-117 2,-149 0,-76 -2,-132 -37,-173 -32,-37 -81,-59 -140,-59 -75,0 -135,31 -183,96l0 -82c-27,3 -53,4 -80,4 -27,0 -55,-1 -82,-4 6,87 9,182 9,284 0,92 -3,186 -9,284zm960 -313l0 138c0,74 -31,110 -82,110 -49,0 -74,-34 -74,-102 0,-83 48,-125 156,-146zm5 238c13,57 51,85 107,85 37,0 82,-8 125,-26l0 -30 -4 0c-70,0 -78,-29 -78,-114l0 -22 3 -207 0 -6c0,-122 -78,-190 -221,-190 -75,0 -142,30 -211,90 10,28 19,54 26,76 37,-62 79,-91 133,-91 68,0 113,45 113,117 0,6 0,13 -1,21 -48,32 -115,45 -188,70 -85,28 -125,75 -125,151 0,102 61,165 160,165 71,0 128,-32 161,-89zm311 75c30,-4 58,-6 88,-6 30,0 60,2 88,6 -6,-67 -10,-154 -10,-258 0,-114 30,-169 111,-169 23,0 49,7 77,18 -4,-30 -7,-60 -7,-89 0,-29 3,-57 7,-86l-5 0c-92,0 -155,57 -183,167l-6 0c0,-39 2,-90 6,-151 -28,3 -55,4 -83,4 -28,0 -55,-1 -83,-4 7,79 9,173 9,283 0,105 -3,200 -9,285zm737 -313l0 138c0,74 -31,110 -82,110 -49,0 -74,-34 -74,-102 0,-83 48,-125 156,-146zm5 238c13,57 51,85 107,85 37,0 82,-8 125,-26l0 -30 -4 0c-70,0 -78,-29 -78,-114l0 -22 3 -207 0 -6c0,-122 -78,-190 -221,-190 -75,0 -142,30 -211,90 10,28 19,54 26,76 37,-62 79,-91 133,-91 68,0 113,45 113,117 0,6 0,13 -1,21 -48,32 -115,45 -188,70 -85,28 -125,75 -125,151 0,102 61,165 160,165 71,0 128,-32 161,-89zm398 257c-26,54 -51,102 -77,142 20,-2 38,-4 56,-4 17,0 34,2 50,4 111,-282 237,-580 379,-892 -16,3 -32,4 -49,4 -16,0 -32,-1 -49,-4l-138 366c-53,-124 -101,-247 -141,-366 -31,3 -62,4 -93,4 -31,0 -62,-1 -92,-4l242 568 -88 182zm767 -495l0 138c0,74 -31,110 -82,110 -49,0 -74,-34 -74,-102 0,-83 47,-125 156,-146zm4 238c13,57 51,85 107,85 37,0 82,-8 125,-26l0 -30 -4 0c-70,0 -78,-29 -78,-114l0 -22 4 -207 0 -6c0,-122 -79,-190 -221,-190 -75,0 -143,30 -212,90 11,28 19,54 26,76 37,-62 80,-91 133,-91 68,0 113,45 113,117 0,6 0,13 -1,21 -48,32 -114,45 -188,70 -84,28 -125,75 -125,151 0,102 61,165 161,165 70,0 127,-32 160,-89zm312 75c28,-4 57,-6 86,-6 29,0 59,2 87,6 -6,-124 -8,-219 -8,-286 0,-131 24,-196 101,-196 87,0 95,65 95,205 0,120 -4,212 -10,277 30,-4 59,-6 88,-6 30,0 60,2 90,6 -6,-66 -9,-132 -9,-201 0,-67 1,-117 1,-149 0,-76 -1,-132 -36,-173 -33,-37 -81,-59 -141,-59 -75,0 -134,31 -183,96l0 -82c-26,3 -52,4 -79,4 -28,0 -55,-1 -82,-4 6,87 9,182 9,284 0,92 -3,186 -9,284zm973 -41c51,39 121,56 213,56 183,0 298,-108 298,-267 0,-66 -20,-117 -63,-161 -35,-35 -97,-60 -174,-100 -84,-44 -129,-72 -129,-137 0,-62 46,-105 116,-105 74,0 136,43 160,114l13 0c9,-39 22,-83 39,-131 -56,-38 -118,-55 -190,-55 -174,0 -280,103 -280,242 0,132 79,184 222,260 85,47 136,75 136,145 0,71 -51,120 -133,120 -88,0 -152,-52 -173,-145l-16 0c-12,61 -25,115 -39,164zm913 -272l0 138c0,74 -31,110 -82,110 -49,0 -74,-34 -74,-102 0,-83 47,-125 156,-146zm4 238c13,57 51,85 107,85 37,0 82,-8 125,-26l0 -30 -3 0c-71,0 -79,-29 -79,-114l0 -22 4 -207 0 -6c0,-122 -79,-190 -221,-190 -75,0 -143,30 -212,90 11,28 19,54 26,76 37,-62 80,-91 133,-91 68,0 113,45 113,117 0,6 0,13 -1,21 -47,32 -114,45 -188,70 -84,28 -124,75 -124,151 0,102 60,165 160,165 70,0 127,-32 160,-89zm312 75c28,-4 57,-6 87,-6 28,0 58,2 86,6 -6,-124 -8,-219 -8,-286 0,-131 24,-196 101,-196 87,0 95,65 95,205 0,120 -4,212 -9,277 29,-4 58,-6 87,-6 30,0 60,2 90,6 -6,-66 -9,-132 -9,-201 0,-67 1,-117 1,-149 0,-76 -1,-132 -36,-173 -32,-37 -81,-59 -141,-59 -75,0 -134,31 -183,96l0 -82c-26,3 -52,4 -79,4 -28,0 -55,-1 -82,-4 6,87 9,182 9,284 0,92 -3,186 -9,284zm677 -163c-7,64 -12,108 -15,132 50,33 107,46 177,46 136,0 226,-83 226,-202 0,-106 -69,-133 -194,-182 -67,-26 -101,-41 -101,-88 0,-41 34,-73 85,-73 60,0 106,36 141,109l12 0c7,-40 19,-77 34,-112 -54,-33 -109,-50 -171,-50 -134,0 -218,80 -218,194 0,83 48,122 144,163 88,37 139,52 139,106 0,49 -32,79 -89,79 -70,0 -127,-44 -153,-122l-17 0zm535 -338l0 63c0,160 -4,258 -4,295 0,102 55,157 156,157 44,0 88,-12 137,-33l0 -44c-28,7 -50,12 -69,12 -63,0 -66,-55 -66,-200l0 -48c0,-59 3,-126 5,-202 51,0 90,0 118,1 -1,-10 -3,-20 -3,-30 0,-10 2,-21 3,-31 -39,3 -77,4 -116,4l0 -36c0,-33 3,-93 8,-183l-13 -10c-46,23 -99,46 -161,69 4,34 6,72 6,114 0,16 0,31 -1,46l-13 0c-20,0 -43,-2 -68,-4 2,10 4,21 4,31 0,10 -2,20 -4,30 21,-1 40,-1 60,-1l21 0zm365 501c28,-4 57,-6 86,-6 29,0 59,2 87,6 -6,-124 -8,-219 -8,-286 0,-131 24,-196 101,-196 87,0 95,65 95,205 0,120 -4,212 -10,277 30,-4 59,-6 88,-6 29,0 59,2 88,6 -6,-66 -7,-132 -7,-201 0,-67 1,-117 1,-149 0,-76 -2,-132 -38,-173 -32,-37 -79,-59 -139,-59 -78,0 -140,34 -183,99l0 -184c0,-82 4,-157 12,-225 -28,6 -57,10 -87,10 -28,0 -57,-4 -86,-10 8,124 9,280 9,469 0,180 -1,320 -9,423zm959 -313l0 138c0,74 -31,110 -82,110 -49,0 -74,-34 -74,-102 0,-83 48,-125 156,-146zm5 238c13,57 51,85 106,85 37,0 82,-8 125,-26l0 -30 -3 0c-70,0 -79,-29 -79,-114l0 -22 4 -207 0 -6c0,-122 -79,-190 -221,-190 -75,0 -143,30 -212,90 11,28 19,54 26,76 37,-62 80,-91 133,-91 68,0 113,45 113,117 0,6 0,13 -1,21 -47,32 -114,45 -188,70 -84,28 -124,75 -124,151 0,102 60,165 160,165 70,0 127,-32 161,-89z"/>
 </g>
</svg>
